<svg xmlns="http://www.w3.org/2000/svg" width="48" height="34"><path fill="#245ec3" d="M45.144 0H14.312c-1.222 0-1.224 1.904 0 1.904h30.832c.525 0 .952.427.952.952v22.501a.953.953 0 01-.952.952H28.472a.952.952 0 00-.747.362l-3.84 4.866-4.074-4.885a.953.953 0 00-.731-.343H2.856a.953.953 0 01-.952-.952v-22.5c0-.526.427-.953.952-.953H6.48C7.702 1.904 7.704 0 6.48 0H2.856A2.86 2.86 0 000 2.856v22.501a2.86 2.86 0 002.856 2.856h15.778l4.54 5.445a.958.958 0 001.478-.02l4.282-5.425h16.21A2.86 2.86 0 0048 25.357v-22.5A2.86 2.86 0 0045.144 0z"/><path fill="#ed942c" d="M5.946 11.627l2.815-.72 1.556-2.456c.366-.577 1.245-.573 1.609 0l1.555 2.455 2.816.721c.661.17.93 1.007.497 1.53l-1.854 2.238.184 2.9c.143 2.247-3.26-.11-4.003-.126-.736-.014-4.147 2.399-4.002.127l.184-2.901-1.854-2.238a.952.952 0 01.497-1.53zM7.874 13.1l1.136 1.372a.952.952 0 01.217.668l-.113 1.778 1.656-.657a.953.953 0 01.702 0l1.656.657-.113-1.778a.952.952 0 01.217-.668l1.137-1.372-1.726-.442c-.697-.178-1.173-1.367-1.522-1.918-.354.56-.817 1.738-1.521 1.918zm21.7.057l-1.854 2.238.184 2.9c.143 2.247-3.26-.11-4.003-.126-.736-.014-4.147 2.399-4.002.127l.184-2.9-1.854-2.24a.952.952 0 01.497-1.529l2.815-.72 1.556-2.456c.366-.577 1.245-.573 1.609 0l1.555 2.455 2.816.721a.952.952 0 01.497 1.53zm-2.425-.058l-1.726-.442c-.697-.178-1.173-1.367-1.522-1.917-.354.559-.817 1.737-1.521 1.917l-1.726.442 1.136 1.372a.952.952 0 01.217.668l-.113 1.778c.593-.235 1.357-.724 2.007-.724.654 0 1.413.488 2.007.724l-.113-1.778a.952.952 0 01.217-.668zm15.217.058l-1.854 2.238.184 2.9c.143 2.248-3.262-.11-4.003-.126-.737-.014-4.147 2.398-4.002.126l.184-2.9-1.854-2.238c-.436-.526-.16-1.362.497-1.53l2.815-.72L35.89 8.45c.366-.577 1.245-.573 1.609 0l1.555 2.455 2.816.721a.952.952 0 01.497 1.53zm-2.425-.058l-1.726-.442c-.697-.178-1.173-1.367-1.522-1.917-.354.559-.817 1.737-1.521 1.917l-1.726.442 1.136 1.372a.952.952 0 01.217.668l-.113 1.778 1.656-.657a.953.953 0 01.702 0l1.657.657-.113-1.778a.952.952 0 01.216-.668z"/><path fill="#245ec3" d="M9.892 1.743c.716.49 1.673-.223 1.445-1.045a.96.96 0 00-.87-.697.96.96 0 00-.935.609.959.959 0 00.36 1.133z"/></svg>