<svg xmlns="http://www.w3.org/2000/svg" width="20" height="16"><path fill="#245ec3" d="M19.962 1.905a8.454 8.454 0 01-2.353.635A4.074 4.074 0 0019.412.307c-.81.462-1.69.79-2.608.971A4.12 4.12 0 0014.48.054a4.157 4.157 0 00-2.601.422 4.062 4.062 0 00-1.803 1.894 3.977 3.977 0 00-.258 2.582A11.667 11.667 0 011.368.75a3.925 3.925 0 00-.557 2.03c0 .664.166 1.318.484 1.903a4.056 4.056 0 001.339 1.454 4.124 4.124 0 01-1.855-.503v.049c0 .932.327 1.835.926 2.557a4.116 4.116 0 002.361 1.403 4.25 4.25 0 01-1.842.07 4.057 4.057 0 001.463 2.006 4.162 4.162 0 002.374.797A8.315 8.315 0 01.977 14.24 8.26 8.26 0 010 14.186 11.796 11.796 0 006.3 16c7.541 0 11.663-6.149 11.663-11.474 0-.17 0-.342-.014-.516A8.138 8.138 0 0020 1.92z"/></svg>