<svg width="8" height="8" fill="none" xmlns="http://www.w3.org/2000/svg"><g opacity=".5" fill="#393E46"><path d="M7.776.233A.74.74 0 007.24 0a.74.74 0 00-.536.233L3.981 3.066 1.295.233A.74.74 0 00.76 0a.74.74 0 00-.536.233.839.839 0 000 1.137l3.218 3.393c.07.075.155.135.247.175a.725.725 0 00.83-.175L7.777 1.37a.839.839 0 000-1.137z"/><path d="M7.776 7.767A.74.74 0 017.24 8a.74.74 0 01-.536-.233L3.981 4.934 1.295 7.767A.74.74 0 01.76 8a.74.74 0 01-.536-.233.839.839 0 010-1.137l3.218-3.393a.758.758 0 01.247-.175.725.725 0 01.83.175L7.777 6.63a.839.839 0 010 1.137z"/></g></svg>