<svg xmlns="http://www.w3.org/2000/svg" width="44" height="48"><path fill="#245ec3" d="M11.423 25.526A14.853 14.853 0 017.04 14.951c0-3.994 1.557-7.75 4.383-10.574a14.84 14.84 0 018.41-4.223A15.091 15.091 0 0128.92 1.69a.937.937 0 11-.867 1.663 13.033 13.033 0 00-15.305 2.35 12.99 12.99 0 00-3.833 9.25 12.99 12.99 0 003.833 9.248l.036.034a9.467 9.467 0 014.193-6.06 6.449 6.449 0 01-1.46-4.093c0-3.572 2.909-6.479 6.484-6.479a6.489 6.489 0 016.482 6.48 6.45 6.45 0 01-1.46 4.091 9.464 9.464 0 014.195 6.062l.035-.035a13.021 13.021 0 002.358-15.29.937.937 0 111.663-.867 14.87 14.87 0 011.53 9.08 14.83 14.83 0 01-4.225 8.403 14.916 14.916 0 01-10.578 4.375 14.91 14.91 0 01-10.578-4.375zm5.969-11.445a4.613 4.613 0 004.61 4.606 4.612 4.612 0 004.606-4.606A4.61 4.61 0 0022 9.477a4.612 4.612 0 00-4.609 4.604zM14.48 25.656c4.495 3.16 10.548 3.16 15.042 0a7.57 7.57 0 00-3.956-6.165A6.444 6.444 0 0122 20.563a6.448 6.448 0 01-3.566-1.073 7.571 7.571 0 00-3.955 6.166z"/><path fill="#245ec3" d="M31.919 5.979a.938.938 0 00.838-1.357l-.003-.006a.935.935 0 00-1.257-.416.94.94 0 00.422 1.779z"/><path fill="#ed942c" d="M29.806 37.155a.938.938 0 01.514 1.58l-3.36 3.436.697 4.755a.938.938 0 01-1.343.976l-4.31-2.132-4.308 2.132a.937.937 0 01-1.344-.976l.699-4.755-3.363-3.436a.937.937 0 01.513-1.58l4.743-.805 2.23-4.258a.937.937 0 011.661 0l2.231 4.259zm-2.079 1.55l-3.433-.584a.938.938 0 01-.674-.489l-1.615-3.084-1.616 3.084a.937.937 0 01-.674.49l-3.434.582 2.435 2.488c.204.21.3.503.257.792l-.506 3.444 3.122-1.545a.937.937 0 01.832 0l3.121 1.545-.506-3.444a.938.938 0 01.258-.792zm-15.303-8.497a.938.938 0 01.513 1.58l-2.334 2.387.486 3.3a.938.938 0 01-1.344.977L6.752 36.97 3.76 38.452a.937.937 0 01-1.343-.977l.485-3.3-2.334-2.387a.938.938 0 01.513-1.58l3.292-.56 1.55-2.956a.938.938 0 011.661 0l1.547 2.956zm-2.079 1.549l-1.987-.338a.938.938 0 01-.673-.49l-.933-1.781-.935 1.782a.938.938 0 01-.673.49l-1.985.337 1.408 1.439c.205.21.3.502.257.792l-.292 1.99 1.804-.894a.937.937 0 01.832 0l1.805.894-.292-1.99a.937.937 0 01.257-.792zm33.092.031l-2.334 2.387.486 3.3a.938.938 0 01-1.344.977l-2.993-1.482-2.993 1.482a.937.937 0 01-1.343-.977l.485-3.3-2.334-2.387a.938.938 0 01.513-1.58l3.292-.56 1.55-2.956a.938.938 0 011.66 0l1.55 2.956 3.292.56a.938.938 0 01.513 1.58zm-2.592-.031l-1.984-.338a.938.938 0 01-.673-.489l-.936-1.783-.935 1.783a.938.938 0 01-.673.49l-1.985.337 1.408 1.439c.204.21.3.502.257.792l-.293 1.99 1.805-.894a.937.937 0 01.832 0l1.805.894-.292-1.99a.937.937 0 01.257-.792z"/></svg>