<svg xmlns="http://www.w3.org/2000/svg" width="20" height="10"><path fill="#245ec3" d="M19.541.677c.14-.39 0-.677-.66-.677h-2.19c-.556 0-.81.248-.95.52 0 0-1.113 2.285-2.69 3.766-.51.43-.742.567-1.02.567-.138 0-.34-.136-.34-.527V.677c0-.469-.16-.677-.624-.677h-3.44C7.28 0 7.07.217 7.07.423c0 .444.789.547.87 1.797v2.712c0 .594-.127.702-.406.702-.742 0-2.547-2.293-3.618-4.917C3.708.207 3.497 0 2.938 0H.751C.125 0 0 .249 0 .52c0 .49.742 2.91 3.454 6.11C5.263 8.815 7.81 10 10.128 10c1.39 0 1.562-.263 1.562-.717V7.631c0-.525.133-.631.573-.631.324 0 .88.137 2.18 1.19C15.924 9.44 16.17 10 17.003 10h2.188c.625 0 .937-.264.758-.783-.197-.517-.906-1.269-1.846-2.159-.51-.507-1.274-1.053-1.507-1.326-.324-.352-.23-.508 0-.82.001 0 2.667-3.16 2.944-4.235z"/></svg>