<svg width="24" height="24" fill="none" xmlns="http://www.w3.org/2000/svg"><rect width="24" height="24" rx="2" fill="url(#paint0_linear)"/><path d="M13 6a1 1 0 011-1h1a1 1 0 011 1v13h-2a1 1 0 01-1-1V6zm3 10h3a1 1 0 011 1v1a1 1 0 01-1 1h-3v-3zM4 6a1 1 0 011-1h2v13a1 1 0 01-1 1H5a1 1 0 01-1-1V6zm3-1h3a1 1 0 011 1v1a1 1 0 01-1 1H7V5zm0 6h3a1 1 0 011 1v1a1 1 0 01-1 1H7v-3z" fill="#fff"/><defs><linearGradient id="paint0_linear" x1="12" y1="0" x2="12" y2="24" gradientUnits="userSpaceOnUse"><stop stop-color="#5EBC36"/><stop offset="1" stop-color="#4EA828"/></linearGradient></defs></svg>