<svg xmlns="http://www.w3.org/2000/svg" width="18" height="18" viewBox="0 0 18 18"><g><g><path fill="#245ec3" d="M17.913 7.424c.088.297.11.61.063.917l-1.172 7.86A2.151 2.151 0 0 1 14.694 18H.781A.781.781 0 0 1 0 17.218V9.006a.782.782 0 0 1 .782-.782H3.79L7.542.442A.782.782 0 0 1 8.675.129l1.25.782a2.11 2.11 0 0 1 1.017 1.799v3.167h4.924a2.109 2.109 0 0 1 1.602.743c.205.232.358.507.445.804zm-16.35 9.012h1.954V9.788H1.563zm14.85-8.33a.548.548 0 0 0-.547-.664H10.16a.781.781 0 0 1-.781-.783V2.71a.548.548 0 0 0-.274-.469l-.508-.312L5.08 9.2v7.235h9.613a.547.547 0 0 0 .547-.47z"/></g></g></svg>