<svg xmlns="http://www.w3.org/2000/svg" width="20" height="16" viewBox="0 0 20 16"><g><g><path fill="#245ec3" d="M19.962 1.905a8.454 8.454 0 0 1-2.353.635A4.074 4.074 0 0 0 19.412.307c-.81.462-1.69.79-2.608.971A4.12 4.12 0 0 0 14.48.054a4.157 4.157 0 0 0-2.601.422 4.062 4.062 0 0 0-1.803 1.894 3.977 3.977 0 0 0-.258 2.582A11.667 11.667 0 0 1 1.368.75 3.925 3.925 0 0 0 .811 2.78c0 .664.166 1.318.484 1.903a4.056 4.056 0 0 0 1.339 1.454 4.124 4.124 0 0 1-1.855-.503v.049c0 .932.327 1.835.926 2.557a4.116 4.116 0 0 0 2.361 1.403c-.351.092-.713.14-1.077.14-.263 0-.515-.024-.765-.07a4.057 4.057 0 0 0 1.463 2.006 4.162 4.162 0 0 0 2.374.797 8.315 8.315 0 0 1-5.084 1.724A8.26 8.26 0 0 1 0 14.186 11.796 11.796 0 0 0 6.3 16c7.541 0 11.663-6.149 11.663-11.474 0-.17 0-.342-.014-.516A8.138 8.138 0 0 0 20 1.92z"/></g></g></svg>