<svg width="95" height="94" viewBox="0 0 95 94" fill="none" xmlns="http://www.w3.org/2000/svg">
<path d="M90.8929 1.66695C90.0117 1.09504 89.0265 0.702344 87.9935 0.511295C86.9605 0.320245 85.9 0.334586 84.8725 0.553498C83.8451 0.77241 82.8708 1.1916 82.0054 1.78713C81.14 2.38266 80.4004 3.14285 79.8289 4.02428L35.0022 73.1203L13.1409 52.9069C12.3696 52.1938 11.4654 51.6395 10.4799 51.2758C9.49436 50.9121 8.44687 50.746 7.39719 50.7871C5.27728 50.8702 3.27717 51.7919 1.83687 53.3496C0.39657 54.9073 -0.365946 56.9734 -0.282929 59.0933C-0.199913 61.2132 0.721834 63.2133 2.27954 64.6536L30.9835 91.1923C30.9835 91.1923 31.8075 91.9016 32.1889 92.1496C33.0702 92.7219 34.0556 93.115 35.0889 93.3063C36.1221 93.4975 37.183 93.4833 38.2107 93.2644C39.2385 93.0454 40.213 92.6261 41.0787 92.0303C41.9443 91.4346 42.684 90.6741 43.2555 89.7923L93.2502 12.731C93.8221 11.8498 94.2148 10.8645 94.4059 9.83154C94.5969 8.79854 94.5826 7.73803 94.3637 6.71058C94.1448 5.68313 93.7256 4.70888 93.13 3.84348C92.5345 2.97808 91.7743 2.23848 90.8929 1.66695Z" fill="#245EC3"/>
</svg>
