<svg xmlns="http://www.w3.org/2000/svg" width="44" height="48" viewBox="0 0 44 48"><g><g><g><path fill="#245ec3" d="M11.423 25.526A14.853 14.853 0 0 1 7.04 14.951c0-3.994 1.557-7.75 4.383-10.574a14.84 14.84 0 0 1 8.41-4.223A15.091 15.091 0 0 1 28.92 1.69a.937.937 0 1 1-.867 1.663 13.033 13.033 0 0 0-15.305 2.35 12.99 12.99 0 0 0-3.833 9.25 12.99 12.99 0 0 0 3.833 9.248l.036.034a9.467 9.467 0 0 1 4.193-6.06 6.449 6.449 0 0 1-1.46-4.093c0-3.572 2.909-6.479 6.484-6.479 3.574 0 6.482 2.907 6.482 6.48a6.45 6.45 0 0 1-1.46 4.091 9.464 9.464 0 0 1 4.195 6.062l.035-.035a13.021 13.021 0 0 0 2.358-15.29.937.937 0 1 1 1.663-.867 14.87 14.87 0 0 1 1.53 9.08 14.83 14.83 0 0 1-4.225 8.403 14.916 14.916 0 0 1-10.578 4.375 14.91 14.91 0 0 1-10.578-4.375zm5.969-11.445a4.613 4.613 0 0 0 4.61 4.606 4.612 4.612 0 0 0 4.606-4.606A4.61 4.61 0 0 0 22 9.477a4.612 4.612 0 0 0-4.609 4.604zM14.48 25.656c4.495 3.16 10.548 3.16 15.042 0a7.57 7.57 0 0 0-3.956-6.165A6.444 6.444 0 0 1 22 20.563a6.448 6.448 0 0 1-3.566-1.073 7.571 7.571 0 0 0-3.955 6.166z"/></g><g><path fill="#245ec3" d="M31.919 5.979a.938.938 0 0 0 .838-1.357l-.003-.006a.935.935 0 0 0-1.257-.416.94.94 0 0 0 .422 1.779z"/></g><g><path fill="#ed942c" d="M29.806 37.155a.938.938 0 0 1 .514 1.58l-3.36 3.436.697 4.755a.938.938 0 0 1-1.343.976l-4.31-2.132-4.308 2.132a.937.937 0 0 1-1.344-.976l.699-4.755-3.363-3.436a.937.937 0 0 1 .513-1.58l4.743-.805 2.23-4.258a.937.937 0 0 1 1.661 0l2.231 4.259zm-2.079 1.55l-3.433-.584a.938.938 0 0 1-.674-.489l-1.615-3.084-1.616 3.084a.937.937 0 0 1-.674.49l-3.434.582 2.435 2.488c.204.21.3.503.257.792l-.506 3.444 3.122-1.545a.937.937 0 0 1 .832 0l3.121 1.545-.506-3.444a.938.938 0 0 1 .258-.792z"/></g><g><path fill="#ed942c" d="M12.424 30.208a.938.938 0 0 1 .513 1.58l-2.334 2.387.486 3.3a.938.938 0 0 1-1.344.977L6.752 36.97 3.76 38.452a.937.937 0 0 1-1.343-.977l.485-3.3-2.334-2.387a.938.938 0 0 1 .513-1.58l3.292-.56 1.55-2.956a.938.938 0 0 1 1.661 0l1.547 2.956zm-2.079 1.549l-1.987-.338a.938.938 0 0 1-.673-.49l-.933-1.781-.935 1.782a.938.938 0 0 1-.673.49l-1.985.337 1.408 1.439c.205.21.3.502.257.792l-.292 1.99 1.804-.894a.937.937 0 0 1 .832 0l1.805.894-.292-1.99a.937.937 0 0 1 .257-.792z"/></g><g><path fill="#ed942c" d="M43.437 31.788l-2.334 2.387.486 3.3a.938.938 0 0 1-1.344.977l-2.993-1.482-2.993 1.482a.937.937 0 0 1-1.343-.977l.485-3.3-2.334-2.387a.938.938 0 0 1 .513-1.58l3.292-.56 1.55-2.956a.938.938 0 0 1 1.66 0l1.55 2.956 3.292.56a.938.938 0 0 1 .513 1.58zm-2.592-.031l-1.984-.338a.938.938 0 0 1-.673-.489l-.936-1.783-.935 1.783a.938.938 0 0 1-.673.49l-1.985.337 1.408 1.439c.204.21.3.502.257.792l-.293 1.99 1.805-.894a.937.937 0 0 1 .832 0l1.805.894-.292-1.99a.937.937 0 0 1 .257-.792z"/></g></g></g></svg>