<svg width="8" height="5" viewBox="0 0 8 5" fill="none" xmlns="http://www.w3.org/2000/svg">
<path opacity="0.5" d="M7.77552 0.232761C7.63333 0.0836789 7.44099 0 7.2405 0C7.04001 0 6.84766 0.0836789 6.70547 0.232761L3.98103 3.06631L1.29453 0.232761C1.15234 0.0836789 0.959994 0 0.759504 0C0.559014 0 0.36667 0.0836789 0.224481 0.232761C0.15335 0.307172 0.0968926 0.395701 0.0583643 0.493242C0.0198361 0.590782 0 0.695404 0 0.801071C0 0.906738 0.0198361 1.01136 0.0583643 1.1089C0.0968926 1.20644 0.15335 1.29497 0.224481 1.36938L3.44221 4.76323C3.51276 4.83826 3.59669 4.8978 3.68917 4.93844C3.78165 4.97908 3.88084 5 3.98103 5C4.08121 5 4.1804 4.97908 4.27288 4.93844C4.36536 4.8978 4.4493 4.83826 4.51985 4.76323L7.77552 1.36938C7.84665 1.29497 7.90311 1.20644 7.94163 1.1089C7.98016 1.01136 8 0.906738 8 0.801071C8 0.695404 7.98016 0.590782 7.94163 0.493242C7.90311 0.395701 7.84665 0.307172 7.77552 0.232761Z" fill="#393E46"/>
</svg>
