<svg width="8" height="8" viewBox="0 0 8 8" fill="none" xmlns="http://www.w3.org/2000/svg">
<g opacity="0.5">
<path d="M7.77552 0.232761C7.63333 0.0836789 7.44099 0 7.2405 0C7.04001 0 6.84766 0.0836789 6.70547 0.232761L3.98103 3.06631L1.29453 0.232761C1.15234 0.0836789 0.959994 0 0.759504 0C0.559014 0 0.36667 0.0836789 0.224481 0.232761C0.15335 0.307172 0.0968926 0.395701 0.0583643 0.493242C0.0198361 0.590782 0 0.695404 0 0.801071C0 0.906738 0.0198361 1.01136 0.0583643 1.1089C0.0968926 1.20644 0.15335 1.29497 0.224481 1.36938L3.44221 4.76323C3.51276 4.83826 3.59669 4.8978 3.68917 4.93844C3.78165 4.97908 3.88084 5 3.98103 5C4.08121 5 4.1804 4.97908 4.27288 4.93844C4.36536 4.8978 4.4493 4.83826 4.51985 4.76323L7.77552 1.36938C7.84665 1.29497 7.90311 1.20644 7.94163 1.1089C7.98016 1.01136 8 0.906738 8 0.801071C8 0.695404 7.98016 0.590782 7.94163 0.493242C7.90311 0.395701 7.84665 0.307172 7.77552 0.232761Z" fill="#393E46"/>
<path d="M7.77552 7.76724C7.63333 7.91632 7.44099 8 7.2405 8C7.04001 8 6.84766 7.91632 6.70547 7.76724L3.98103 4.93369L1.29453 7.76724C1.15234 7.91632 0.959994 8 0.759504 8C0.559014 8 0.36667 7.91632 0.224481 7.76724C0.15335 7.69283 0.0968926 7.6043 0.0583643 7.50676C0.0198361 7.40922 0 7.3046 0 7.19893C0 7.09326 0.0198361 6.98864 0.0583643 6.8911C0.0968926 6.79356 0.15335 6.70503 0.224481 6.63062L3.44221 3.23677C3.51276 3.16174 3.59669 3.1022 3.68917 3.06156C3.78165 3.02092 3.88084 3 3.98103 3C4.08121 3 4.1804 3.02092 4.27288 3.06156C4.36536 3.1022 4.4493 3.16174 4.51985 3.23677L7.77552 6.63062C7.84665 6.70503 7.90311 6.79356 7.94163 6.8911C7.98016 6.98864 8 7.09326 8 7.19893C8 7.3046 7.98016 7.40922 7.94163 7.50676C7.90311 7.6043 7.84665 7.69283 7.77552 7.76724Z" fill="#393E46"/>
</g>
</svg>
