<svg xmlns="http://www.w3.org/2000/svg" width="48" height="40" viewBox="0 0 48 40"><g><g><g/><g><g><g><path fill="#245ec3" d="M25.162 25.794a.999.999 0 0 1-1.394-.24 3.508 3.508 0 0 0-2.86-1.483 6.197 6.197 0 0 1-2.148-.42l-4.734 6.833a1 1 0 0 1-1.644 0l-4.734-6.833a6.197 6.197 0 0 1-2.05.416 1.014 1.014 0 0 1-.099.005c-1.93 0-3.5 1.57-3.5 3.5v4.919h16.668a1 1 0 0 1 0 2H1a1 1 0 0 1-1-1v-5.92a5.505 5.505 0 0 1 5.402-5.499 4.24 4.24 0 0 0 4.206-3.749c-1.883-1.368-3.26-3.788-3.655-6.697a.995.995 0 0 1-.177-.28 9.188 9.188 0 0 1-.4-1.212c-1.05-4.117.895-8.276 4.334-9.27.343-.099.7-.165 1.066-.195a6.94 6.94 0 0 1 3.072-.719c4.113 0 7.46 3.601 7.46 8.028a8.485 8.485 0 0 1-.658 3.304.993.993 0 0 1-.187.29c-.248 1.888-.919 3.635-1.951 5.033A7.985 7.985 0 0 1 16.8 18.33a4.24 4.24 0 0 0 4.206 3.743c.037 0 .074.002.11.006A5.51 5.51 0 0 1 25.4 24.4a1 1 0 0 1-.24 1.394zM7.202 9.115A6.873 6.873 0 0 0 8.58 6.448a1.174 1.174 0 0 1 2.224-.146 1.197 1.197 0 0 0 1.11.75h5.23c.81 0 1.558.27 2.16.725-.097-3.231-2.507-5.828-5.457-5.828-.808 0-1.594.198-2.337.589a1 1 0 0 1-.42.114 3.552 3.552 0 0 0-.825.133c-2.276.658-3.582 3.431-3.064 6.33zm2.51 6.57c.978 1.194 2.218 1.852 3.491 1.852 1.376 0 2.69-.753 3.7-2.12 1.07-1.45 1.663-3.39 1.67-5.467-.258-.53-.8-.898-1.429-.898h-5.23a3.171 3.171 0 0 1-1.92-.641 8.932 8.932 0 0 1-2.074 2.842c.216 1.713.844 3.273 1.793 4.431zm7.318 6.95a6.244 6.244 0 0 1-2.09-3.363 5.791 5.791 0 0 1-3.472-.003 6.243 6.243 0 0 1-2.091 3.367l3.826 5.523z"/></g></g></g><g><g><g><path fill="#ed942c" d="M47.997 33.126v5.919a1 1 0 0 1-1 1H22.59a1 1 0 0 1-1-1v-5.92a5.505 5.505 0 0 1 5.401-5.499 4.24 4.24 0 0 0 4.206-3.747 7.594 7.594 0 0 1-1.187-1.07c-.865-.961-1.547-2.178-1.993-3.532a8.04 8.04 0 0 0-.297.456 1.001 1.001 0 0 1-1.763-.106 12.07 12.07 0 0 1-.973-3.383c-.06-.415-.098-.85-.113-1.323-.089-2.789.724-5.447 2.288-7.486 1.61-2.097 3.82-3.294 6.222-3.371a7.49 7.49 0 0 1 3.362.674 7.21 7.21 0 0 1 .429-.007c2.08.02 4.044.981 5.532 2.71C44.157 9.13 45 11.38 45.076 13.775c.078 2.443-.647 4.775-2.042 6.566a1 1 0 0 1-1.745-.321c-.665 1.626-1.675 2.963-2.9 3.854a4.24 4.24 0 0 0 4.207 3.753c.033 0 .066.001.1.005a5.505 5.505 0 0 1 5.301 5.494zm-17.839-17.93a7.896 7.896 0 0 1 3.042-.49c1.173.041 2.229-.516 2.752-1.452a7.41 7.41 0 0 0 .48-1.041 1 1 0 0 1 1.325-.575c1.986.835 3.611 2.426 4.577 4.48.116.244.22.492.315.744a8.706 8.706 0 0 0 .429-3.023c-.062-1.941-.733-3.75-1.89-5.093-1.11-1.29-2.548-2.006-4.05-2.016l-.547.025a1.017 1.017 0 0 1-.482-.104c-1.315-.663-2.604-.59-2.664-.588-1.792.057-3.461.977-4.7 2.59-1.283 1.673-1.95 3.876-1.875 6.205a10.555 10.555 0 0 0 .325 2.29c.838-.901 2.17-1.652 2.963-1.951zm4.631 7.896c1.274 0 2.514-.658 3.491-1.853 1.035-1.264 1.69-3.005 1.843-4.902l.012-.09a6.955 6.955 0 0 0-2.278-2.315c-.051.1-.104.2-.16.298-.89 1.593-2.636 2.54-4.566 2.474a5.937 5.937 0 0 0-2.27.365c-.423.16-.826.369-1.206.623.686 3.162 2.78 5.4 5.134 5.4zm-4.713 5.714a4.906 4.906 0 0 0 4.718 3.587c2.222 0 4.14-1.5 4.718-3.587a6.256 6.256 0 0 1-2.983-3.983 5.791 5.791 0 0 1-1.74.268 5.79 5.79 0 0 1-1.73-.269 6.254 6.254 0 0 1-2.983 3.984zm15.922 9.24v-4.92c0-1.93-1.57-3.5-3.5-3.5-.033 0-.066-.002-.099-.005a6.217 6.217 0 0 1-1.01-.113 6.91 6.91 0 0 1-6.595 4.885 6.91 6.91 0 0 1-6.595-4.885 6.231 6.231 0 0 1-1.01.113 1.014 1.014 0 0 1-.1.005c-1.929 0-3.499 1.57-3.499 3.5v4.92z"/></g></g></g></g></g></svg>