<svg width="5" height="8" viewBox="0 0 5 8" fill="none" xmlns="http://www.w3.org/2000/svg">
<path opacity="0.5" d="M0.232761 0.224482C0.0836789 0.366671 0 0.559015 0 0.759505C0 0.959995 0.0836789 1.15234 0.232761 1.29453L3.06631 4.01897L0.232761 6.70547C0.0836789 6.84766 0 7.04001 0 7.2405C0 7.44099 0.0836789 7.63333 0.232761 7.77552C0.307172 7.84665 0.395701 7.90311 0.493242 7.94164C0.590782 7.98016 0.695404 8 0.801071 8C0.906738 8 1.01136 7.98016 1.1089 7.94164C1.20644 7.90311 1.29497 7.84665 1.36938 7.77552L4.76323 4.55779C4.83826 4.48724 4.8978 4.40331 4.93844 4.31083C4.97908 4.21835 5 4.11916 5 4.01897C5 3.91879 4.97908 3.8196 4.93844 3.72712C4.8978 3.63464 4.83826 3.5507 4.76323 3.48015L1.36938 0.224482C1.29497 0.153351 1.20644 0.0968938 1.1089 0.0583653C1.01136 0.0198374 0.906738 0 0.801071 0C0.695404 0 0.590782 0.0198374 0.493242 0.0583653C0.395701 0.0968938 0.307172 0.153351 0.232761 0.224482Z" fill="#393E46"/>
</svg>
