<svg xmlns="http://www.w3.org/2000/svg" width="48" height="48" viewBox="0 0 48 48"><g><g><path fill="#ed942c" d="M37.41 28.97c0 4.55-3.7 8.25-8.25 8.25s-8.25-3.7-8.25-8.25 3.7-8.25 8.25-8.25 8.25 3.7 8.25 8.25zm-1.875 0a6.382 6.382 0 0 0-6.375-6.375 6.382 6.382 0 0 0-6.375 6.375 6.383 6.383 0 0 0 6.375 6.375 6.382 6.382 0 0 0 6.375-6.375z"/></g><g><path fill="#245ec3" d="M47.16 42.485a3.183 3.183 0 0 1 0 4.495 3.17 3.17 0 0 1-2.248.93c-.814 0-1.628-.31-2.247-.93l-7.441-7.44a12.113 12.113 0 0 1-6.07 1.621c-6.405 0-11.672-4.966-12.152-11.25H3.287A3.2 3.2 0 0 1 .09 26.714c0-5.795 4.715-10.51 10.51-10.51h.135a5.988 5.988 0 0 1-1.656-4.136V5.402A5.498 5.498 0 0 1 14.571-.09h6.817c.518 0 .938.42.938.937v3.241a4.136 4.136 0 0 1-1.223 2.938v5.042a5.988 5.988 0 0 1-1.657 4.137h.136c1.84 0 3.632.478 5.217 1.386a12.122 12.122 0 0 1 4.355-.805c6.72 0 12.188 5.467 12.188 12.188a12.17 12.17 0 0 1-4.546 9.486l7.194 7.194a1.305 1.305 0 0 0 1.845 0 1.305 1.305 0 0 0 0-1.843l-3.06-3.059a.938.938 0 0 1 1.327-1.326zM11.473 18.08l3.618 3.617 3.617-3.617zm-.519-11.72h7.224a2.275 2.275 0 0 0 2.273-2.272V1.785h-5.88a3.621 3.621 0 0 0-3.617 3.617zm0 5.708a4.141 4.141 0 0 0 4.137 4.137 4.142 4.142 0 0 0 4.137-4.137V8.1a4.13 4.13 0 0 1-1.05.134h-7.224zM3.287 28.036h13.715c.301-3.951 2.496-7.38 5.676-9.383a8.59 8.59 0 0 0-1.498-.424.948.948 0 0 1-.127.157l-5.3 5.3a.939.939 0 0 1-1.326 0l-5.3-5.3a.948.948 0 0 1-.126-.157c-4 .751-7.036 4.27-7.036 8.485 0 .729.593 1.322 1.322 1.322zm25.867 11.25c5.686 0 10.313-4.626 10.313-10.313 0-5.686-4.627-10.312-10.313-10.312-5.687 0-10.313 4.626-10.313 10.312 0 5.687 4.626 10.313 10.313 10.313z"/></g><g><path fill="#ed942c" d="M29.157 24.75a.937.937 0 1 0 0 1.875 2.346 2.346 0 0 1 2.344 2.343.938.938 0 1 0 1.875 0 4.223 4.223 0 0 0-4.218-4.218z"/></g><g><path fill="#ed942c" d="M40.285 36.925a.94.94 0 0 0 0 1.326.942.942 0 0 0 1.325 0 .95.95 0 0 0 .275-.663c0-.247-.1-.489-.275-.663a.944.944 0 0 0-.663-.275c-.247 0-.488.1-.662.275z"/></g></g></svg>