<svg xmlns="http://www.w3.org/2000/svg" width="20" height="20" viewBox="0 0 20 20"><g><g><path fill="#245ec3" d="M15.128 10a5.124 5.124 0 0 1-5.13 5.131A5.124 5.124 0 0 1 4.865 10a5.124 5.124 0 0 1 5.131-5.131c2.84 0 5.131 2.292 5.131 5.131zm-1.796 0a3.342 3.342 0 0 0-3.335-3.335A3.342 3.342 0 0 0 6.663 10a3.342 3.342 0 0 0 3.334 3.335A3.342 3.342 0 0 0 13.332 10zm2.465-6.446a1.197 1.197 0 0 1 .74 1.107c0 .666-.536 1.199-1.199 1.199A1.197 1.197 0 0 1 14.14 4.66a1.197 1.197 0 0 1 1.657-1.107zm4.137 10.574c-.078 1.6-.44 3.02-1.614 4.193-1.17 1.17-2.591 1.536-4.192 1.613C12.749 20.012 11.38 20 10 20c-1.379 0-2.747.013-4.128-.065-1.6-.077-3.02-.44-4.193-1.613C.51 17.15.143 15.729.066 14.128-.012 12.749 0 11.378 0 10c0-1.378-.013-2.747.065-4.128.077-1.6.44-3.02 1.613-4.193C2.85.51 4.271.143 5.872.066 7.251-.012 8.62 0 10 0c1.378 0 2.747-.013 4.128.065 1.6.077 3.019.44 4.192 1.613 1.171 1.171 1.536 2.592 1.614 4.193.077 1.379.065 2.747.065 4.128 0 1.38.015 2.75-.065 4.128zM18.203 10c0-1.458.117-4.586-.403-5.901a3.2 3.2 0 0 0-.756-1.146 3.178 3.178 0 0 0-1.145-.756c-1.316-.52-4.443-.403-5.902-.403-1.458 0-4.585-.117-5.901.403a3.234 3.234 0 0 0-1.146.756c-.353.35-.573.69-.755 1.146-.52 1.315-.403 4.443-.403 5.901 0 1.458-.118 4.583.403 5.902.182.455.402.793.755 1.145.35.353.69.573 1.146.756 1.316.52 4.443.403 5.901.403 1.459 0 4.583.117 5.9-.406a3.201 3.201 0 0 0 1.145-.755c.353-.35.573-.69.755-1.146.523-1.316.406-4.44.406-5.899z"/></g></g></svg>