<svg xmlns="http://www.w3.org/2000/svg" width="80" height="80" viewBox="0 0 80 80"><g><g><path fill="#f9f9f9" d="M68.287 11.716A40 40 0 0 1 40.003 80h-36a4 4 0 0 1-3.8-2.32 4 4 0 0 1 .84-4.36l8-8A39.56 39.56 0 0 1 .003 40a40 40 0 0 1 68.284-28.284zM40.003 72a32 32 0 1 0-22.64-9.36 4 4 0 0 1 1.2 2.8 4 4 0 0 1-1.2 2.84L13.643 72z"/></g><g><path fill="#245ec3" d="M21.778 36.674a4 4 0 1 1 4.444 6.652 4 4 0 0 1-4.444-6.652zm16 0a4 4 0 1 1 4.444 6.652 4 4 0 0 1-4.444-6.652zm16 0a4 4 0 1 1 4.444 6.652 4 4 0 0 1-4.444-6.652z"/></g></g></svg>