<svg xmlns="http://www.w3.org/2000/svg" width="360" height="320" viewBox="0 0 360 320"><g><g><g><path fill="#141b26" d="M234.648 310.935h-5.235l-25.152-83.284c-4.869-16.113-18.924-26.932-34.99-26.932h-41.9c-16.05 0-30.12 10.819-34.972 26.932l-25.17 83.284h-5.217l25.635-84.873c5.515-18.3 21.481-30.587 39.724-30.587h41.9c18.242 0 34.208 12.287 39.74 30.587l25.637 84.873"/></g><g><path fill="#4870c0" d="M358.689 81.924c-1.528-2.512-4.164-4.03-6.999-4.03h-111.7c-3.238 0-6.182 1.98-7.541 5.074l-64.966 148.149H47.868c-4.589 0-8.307 3.912-8.307 8.739 0 4.825 3.718 8.739 8.307 8.739h236.63c3.24 0 6.183-1.982 7.54-5.075l67.194-153.222a9.13 9.13 0 0 0-.543-8.374"/></g><g><path fill="#4580e8" d="M119.57 248.595c5.45-4.524 9.824-8.322 12.298-10.795 6.932-.866 13.702-1.47 20.292-1.903a9.071 9.071 0 0 0-.9 3.959c0 4.825 3.72 8.739 8.307 8.739zm-71.702 0c-4.589 0-8.307-3.914-8.307-8.74 0-4.826 3.718-8.738 8.307-8.738h39.063a188 188 0 0 0-2.285 5.66 413.028 413.028 0 0 0-13.045 11.818zm239.07-.386zm4.97-4.406c.045-.093.088-.188.13-.283l6.362-14.505-6.36 14.502a8.957 8.957 0 0 1-.132.286zm-3.778 3.912a8.074 8.074 0 0 1-1.193.494c2.129-.688 3.94-2.261 4.971-4.406-.832 1.732-2.172 3.09-3.778 3.912zm-8.95-16.598h-42.544c15.282-3.864 25.072-12.154 27.478-30.381 9.115.284 17.52 4.053 23.883 10.277zm6.27-35.642h-20.13c2.752-4.56 12.033-20.796 20.76-45.884 0 .001 0 .003.002.004a308.935 308.935 0 0 0 4.024-12.42 315.634 315.634 0 0 0 4.64-17.108l12.042-4.945c-8.612-31.168-20.695-33.308-23.53-34.084a20.227 20.227 0 0 0-4.988-.911c-.196-.01-.39-.02-.584-.032.263-.701.484-1.433.66-2.2h73.136c-3.062.083-5.964 1.953-7.333 5.076l-49.776 113.505a40.07 40.07 0 0 0-8.923-1.001zm-80.122-50.658l14.117-32.193c.145-.013.295-.024.447-.038.644-.052 1.34-.115 2.088-.188-3.67 11.844-8.447 25.68-14.767 41.187zm154.36-60.545v-.008m-.375-1.11c.147.357.27.724.37 1.097m-.377-1.11c.002.002.003.003.003.005m-110.587-4.283c.41-.333.846-.66 1.298-.968h1.004c-.7.372-1.463.697-2.302.968z"/></g><g><path fill="#1d50a9" d="M284.498 248.595h-82.25l4.292-14.201c11.5-.357 21.637-1.14 30.095-3.277h42.546l8.816-20.104c4.524 4.428 8.015 10.097 9.99 16.638l.412 1.364-6.36 14.502c-1.342 3.062-4.24 5.037-7.442 5.077h-.1z"/></g><g><path fill="#1d50a9" d="M174.57 248.595h-15.003c-4.587 0-8.307-3.914-8.307-8.74 0-1.424.325-2.77.9-3.958 9.242-.605 18.124-.868 26.552-1.023z"/></g><g><path fill="#95b2e2" d="M329.644 157.769l29.588-67.471a9.092 9.092 0 0 0 .766-3.652 9.127 9.127 0 0 1-.764 3.647zm30.04-73.518l.004.014m-.376-1.11c0-.003-.002-.005-.004-.01m-.186-.419zm-.433-.802c-1.527-2.512-4.164-4.03-6.998-4.03h-.209c.072-.002.143-.002.214-.002 1.165 0 2.348.258 3.475.805 1.784.866 3.138 2.313 3.951 4.03a8.755 8.755 0 0 0-.433-.803z"/></g><g><path fill="#1d50a9" d="M309.58 203.521c-4.515-3.365-9.675-5.784-15.207-7.045l49.776-113.505c1.37-3.123 4.27-4.993 7.333-5.077h.209c2.834 0 5.47 1.518 6.998 4.03.238.391.444.798.617 1.216l.002.005.004.01c.147.356.271.723.372 1.095l.004.015.002.007c.206.775.31 1.574.308 2.374a9.088 9.088 0 0 1-.766 3.651l-29.588 67.472z"/></g><g><path fill="#fff" d="M240.743 101.22l-1.73.684-1.607.6c-1.068.395-2.136.728-3.204 1.082a94.321 94.321 0 0 1-6.493 1.8c-4.387 1.038-8.89 1.845-13.626 2.129-4.731.287-9.706.18-15.06-1.206l-1-.265-.5-.134-.25-.068c-.075-.02-.147-.039-.368-.115a13.912 13.912 0 0 1-4.126-2.175c-2.515-1.93-4.336-4.698-5.155-7.732-.857-3.019-.714-6.366.333-9.259.157-.46.185-.48.253-.642l.186-.415.371-.831.746-1.66c2.035-4.345 4.329-8.362 6.791-12.13 2.423-3.813 5.061-7.382 7.752-10.852a171.957 171.957 0 0 1 8.458-9.984c2.952-3.208 5.9-6.273 9.193-9.255l7.305 6.888c-4.328 7.038-8.777 14.214-12.762 21.389-1.025 1.785-1.984 3.589-2.96 5.383-.907 1.816-1.887 3.604-2.745 5.406-1.809 3.592-3.332 7.226-4.652 10.743l-.458 1.317-.229.656-.114.329c-.031.086-.115.312-.027.11.354-.867.43-1.946.194-2.91a4.715 4.715 0 0 0-1.638-2.574 4.603 4.603 0 0 0-1.374-.767l.002-.01.126.019.25.038.5.084c2.663.455 5.978.423 9.401.047 3.436-.407 7.029-1.091 10.621-2.014 1.802-.43 3.596-.982 5.393-1.497l2.665-.845 1.308-.426 1.162-.403 7.068 19.465"/></g><g><path fill="#ed942c" d="M258.958 88.068c-4.389-8.784-18.184-13.153-43.95-4.974l.379 29.788s54.959-2.028 43.571-24.814"/></g><g><path fill="#cecdcc" d="M216.685 112.822c.001-.002.003-.004.003-.007.687-.04 1.623-.1 2.757-.192v.001c-1.137.092-2.074.156-2.76.198"/></g><g><path fill="#7a95d4" d="M219.445 112.624v-.001l.447-.037c-.152.014-.302.025-.447.038z"/></g><g><path fill="#d07c18" d="M216.688 112.815c2.944-5.188 5.912-9.279 8.836-12.396a497.291 497.291 0 0 1-3.545 11.977c-.746.072-1.445.136-2.087.19l-.447.037c-1.134.092-2.07.153-2.757.192"/></g><g><path fill="#fff" d="M86.197 308.965L72.52 303.37l7.636-35.81 13.677 5.597-7.636 35.808"/></g><g><path fill="#1e2634" d="M74.838 296.934l13.37.261c.572.009 1.047.482 1.144 1.138l2.136 14.614c.222 1.516-.856 2.93-2.178 2.884-5.493-.194-8.016-.632-14.941-.737-4.26-.065-17.13.257-23.014.167-5.755-.088-6.357-6.906-3.92-7.485 10.92-2.598 21.469-6.285 25.085-9.868.652-.646 1.48-.986 2.318-.974"/></g><g><path fill="#cecdcc" d="M90.31 289.682l.7-3.285h.008l-.699 3.288zm.783-3.639h-.008l.655-3.07.007.003z"/></g><g><path fill="#bdbcba" d="M91.018 286.397h-.008l.075-.354h.008z"/></g><g><path fill="#e4e9f0" d="M90.31 289.682l-14.088-3.653.787-3.695c1.385-1.071 2.805-2.17 4.253-3.293l10.478 3.932-.655 3.07-.075.354-.7 3.285"/></g><g><path fill="#141b26" d="M193.636 184.156s-30.294-.166-74.724 9.286C88.13 199.989 73.159 276 73.159 276l21.991 8.252s14.773-51.648 28.956-62.91c17.763-.09 33.385 1.178 46.994 2.447 42.929 4.003 65.842 8.006 72.785-30.675-12.206-5.177-50.25-8.96-50.25-8.96z"/></g><g><path fill="#141b26" d="M68.618 280.344l29.595 6.507 2.36-10.28-30.868-7.445-1.087 11.218"/></g><g><path fill="#fff" d="M220.012 42.31l6.92-8.014 12.14 8.441s-7.475 9.948-16.076 6.838l-2.984-7.266"/></g><g><path fill="#fff" d="M240.137 28.284l4.024 8.14-5.088 6.313-12.141-8.441z"/></g><g><path fill="#1e2634" d="M240.791 57.043L228.546 46.66a1.236 1.236 0 0 1-.107-1.785l21.16-23.353a1.335 1.335 0 0 1 1.843-.13l12.244 10.38c.54.458.587 1.257.109 1.787l-21.161 23.354a1.336 1.336 0 0 1-1.843.13"/></g><g><path fill="#ed942c" d="M264.507 196.791s22.35-34.629 33.224-90.43c2.562-13.143-6.724-25.53-19.46-26.234-10.735-.593-22.152-.743-31.384-.705-9.269.04-17.405 6.507-19.949 15.884-5.619 20.717-15.286 51.379-33.302 88.85l70.871 12.635"/></g><g><path fill="#fff" d="M255.597 105.511c-.659-1.228-2.101-1.453-3.222-.495l-11.747 10.02-3.761-10.57c-.484-1.358-1.853-1.843-3.059-1.083-1.206.76-1.792 2.478-1.309 3.837l4.027 11.316-12.362 10.547c-1.12.955-1.494 2.726-.836 3.956.358.666.944 1.036 1.586 1.084.541.04 1.123-.15 1.636-.59l11.747-10.02 3.762 10.572c.31.868.98 1.38 1.741 1.436.428.032.882-.082 1.317-.355 1.207-.76 1.793-2.478 1.31-3.837l-4.027-11.316 12.362-10.546c1.119-.956 1.493-2.727.835-3.956"/></g><g><path fill="#7a95d4" d="M286.082 149.595l-.003-.004a312 312 0 0 0 4.027-12.416 308.021 308.021 0 0 1-4.024 12.42"/></g><g><path fill="#d07c18" d="M286.079 149.59c-1.168-2.276-4.893-11.814-7.79-22.77l16.448-6.75a312.01 312.01 0 0 1-8.659 29.521"/></g><g><path fill="#1e2634" d="M241.846 85.323c-.467 0-.94-.139-1.362-.428-1.149-.792-1.474-2.41-.724-3.621.328-.531 8.164-12.957 20.006-10.774 1.355.251 2.262 1.61 2.023 3.035-.235 1.425-1.51 2.38-2.883 2.131-8.562-1.577-14.908 8.372-14.973 8.474a2.466 2.466 0 0 1-2.087 1.183z"/></g><g><path fill="#fff" d="M278.47 44.6c-3.508 10.02-7.99 28.152-2.56 35.404-5.989 5.115-13.066 9.07-24.245 8.684-11.178-.388-8.9-5.093-5.247-9.256 10.878-1.943 11.998-11.571 11.48-19.595z"/></g><g><path fill="#1d2a30" d="M229.447 82.83c0 4.866 3.272 8.81 7.308 8.81 4.038 0 7.31-3.944 7.31-8.81 0-4.866-3.272-8.812-7.31-8.812-4.036 0-7.308 3.946-7.308 8.811z"/></g><g><path fill="#525252" d="M236.755 91.64c-4.036 0-7.308-3.944-7.308-8.81 0-4.866 3.272-8.812 7.308-8.812 4.038 0 7.31 3.946 7.31 8.811 0 1.079-.161 2.112-.455 3.066-1.033 3.356-3.711 5.746-6.855 5.746z"/></g><g><path fill="#1e2634" d="M230.324 82.83c0 5.55 4.276 10.049 9.552 10.049 5.275 0 9.552-4.5 9.552-10.05 0-5.55-4.277-10.048-9.552-10.048-5.276 0-9.552 4.499-9.552 10.048z"/></g><g><path fill="#cecdcc" d="M257.88 65.497c.039-.378.067-.76.087-1.142-.016.381-.039.761-.07 1.14-.005 0-.01 0-.016.002zm.026-5.666v-.001l.088-.065v.001z"/></g><g><path fill="#cac8c7" d="M258.71 59.235l2.184-1.617"/></g><g><path fill="#c1c0be" d="M257.994 59.766v-.001l.717-.53z"/></g><g><path fill="#e4e9f0" d="M257.897 65.496c.031-.38.054-.76.07-1.14.08-1.491.042-3.014-.06-4.525l.087-.065.717-.531 2.183-1.617 9.188-6.8c.165 1.076-.104 3.254-.689 5.498-1.166 4.492-7.407 8.836-11.496 9.18"/></g><g><path fill="#fff" d="M282.36 30.667c-3.126 13.287-4.31 21.196-11.997 27.172-11.562 8.987-26.347.65-27.08-13.148-.659-12.42 4.564-32.063 18.067-35.649 13.305-3.53 24.137 8.337 21.01 21.625z"/></g><g><path fill="#1e2634" d="M276.572 20.522c-4.678-5.388-26.894 3.312-29.456-8.632-2.562-11.943 10.176-14.711 15.16-9.103 2.832 3.186 9.927-3.103 13.084 1.748 5.26 8.083 12.932 3.713 15.136 11.312 1.836 6.325-7.748 11.794-13.924 4.676"/></g><g><path fill="#1d2a30" d="M286.135 21.965s4.523-3.205 8.608 3.884"/></g><g><path fill="#1e2634" d="M286.643 20.119l-5.538-2.403c-7.753 2.985-7.546 8.811-7.546 14.274 0 6.821-4.153 10.747-4.153 10.747l7.2 2.434s25.543-11.361 10.037-25.052z"/></g><g><path fill="#fff" d="M284.44 47.056c-2.558 2.016-5.75 2.679-8.327 2.339-3.878-.51-4.158-4.432-1.69-7.36 2.22-2.637 6.914-5.55 10.138-3.56 3.176 1.961 2.804 6.274-.121 8.58"/></g><g><path fill="#1e2634" d="M260.876 31.115c-.19 1.09-.9 1.898-1.584 1.803-.682-.095-1.082-1.057-.892-2.148.19-1.09.9-1.898 1.582-1.802.684.095 1.084 1.056.894 2.147"/></g><g><path fill="#1e2634" d="M248.342 29.682c-.192 1.091-.9 1.899-1.584 1.804-.683-.095-1.083-1.056-.893-2.147.19-1.09.9-1.898 1.582-1.803.685.095 1.085 1.055.895 2.146"/></g><g><path fill="#e4e9f0" d="M252.74 30.833s-3.476 5.962-6.623 8.635c1.535 2.058 4.825 1.672 4.825 1.672z"/></g><g><path fill="#1e2634" d="M255.39 46.653c4.075-.007 6.424-2.63 6.531-2.754a.328.328 0 0 0-.012-.455.306.306 0 0 0-.44.033c-.028.03-2.77 3.076-7.346 2.44a.333.333 0 0 0-.362.279.303.303 0 0 0 .25.36c.48.067.94.097 1.378.097z"/></g><g><path fill="#1e2634" d="M266.074 27.947l.31-.084a.681.681 0 0 0 .275-.881c-1.558-3.111-4.418-3.331-4.54-3.338-.343-.024-.65.248-.69.604-.036.355.21.661.55.685.095.007 2.322.203 3.565 2.687.105.21.311.327.53.327"/></g><g><path fill="#1e2634" d="M246.253 24.9a.629.629 0 0 0 .57-.185c2.016-2.044 4.208-1.646 4.301-1.628.334.065.67-.164.752-.514.08-.349-.123-.686-.456-.755-.122-.022-2.925-.566-5.449 1.996-.252.255-.265.664-.03.914l.312.171"/></g><g><path fill="#fff" d="M31.28 311.93l-7.714-13.135 26.601-23.743 7.713 13.132-26.6 23.745"/></g><g><path fill="#1e2634" d="M28.089 294.245l12.362 9.968c.415.334.489.982.18 1.557L33.75 318.58c-.715 1.328-2.321 1.835-3.263 1.041-3.91-3.29-6.583-5.92-11.593-9.96-3.082-2.487-12.692-9.583-16.95-13.014-4.161-3.357-.662-9.108 1.456-8.176 9.5 4.176 17.71 5.996 22.429 5.22.85-.14 1.653.065 2.26.553z"/></g><g><path fill="#263c79" d="M45.61 299.15l-.006-.007 5.644-5.04.004.008z"/></g><g><path fill="#e4e9f0" d="M45.604 299.143L36.451 287.3l6.766-6.044 8.032 12.847-5.645 5.04"/></g><g><path fill="#1e2634" d="M212.635 187.544s-45.796 8.478-88.926 23.15c-29.88 10.165-81.916 68.282-81.916 68.282l12.828 20.523s64.363-48.824 77.247-61.7c73.275-9.148 129.029 10.698 132.64-41.008-12.683-3.692-51.873-9.247-51.873-9.247"/></g><g><path fill="#141b26" d="M35.68 279.564l19.898 23.949 7.77-6.708L42.972 271.3l-7.291 8.264"/></g><g><path fill="#fff" d="M298.87 99.707c2.288 10.455 4.047 20.72 5.311 31.366.614 5.314 1.118 10.677 1.296 16.246.093 2.789.121 5.628-.026 8.636a57.85 57.85 0 0 1-.444 4.727c-.243 1.676-.554 3.453-1.249 5.61-.375 1.1-.871 2.36-1.68 3.727a23.445 23.445 0 0 1-1.856 2.598 27.29 27.29 0 0 1-3.97 3.9c-2.696 2.129-5.356 3.602-7.972 4.865-5.222 2.486-10.364 3.955-15.45 5.212a136.52 136.52 0 0 1-15.224 2.597c-5.085.568-10.056.934-15.259.934l-1.052-10.262c9.224-2.43 18.657-5.081 27.341-8.454 4.345-1.647 8.532-3.59 12.112-5.733 1.763-1.08 3.358-2.257 4.485-3.39.57-.552 1.013-1.086 1.288-1.518.146-.217.225-.4.295-.548-.176.255-.204.313-.184.19.048-.31.165-1.093.215-1.981.056-.901.072-1.936.053-3.012-.02-2.164-.152-4.499-.362-6.872-.436-4.756-1.076-9.676-1.82-14.605-1.498-9.838-3.315-19.932-5.18-29.698l19.333-4.535"/></g><g><path fill="#ed942c" d="M283.197 81.02c2.715.764 14.914 2.7 23.59 34.102l-29.35 12.049s-20.322-53.487 5.76-46.15z"/></g><g><path fill="#1e2634" d="M273.119 87.64c0 5.55-4.276 10.049-9.552 10.049-5.275 0-9.553-4.498-9.553-10.048s4.278-10.05 9.553-10.05c5.276 0 9.552 4.5 9.552 10.05z"/></g><g><path fill="#1e2634" d="M263.066 93.09c-1.04 0-2.01-.688-2.36-1.78-.441-1.37.254-2.857 1.555-3.323.15-.055 10.845-4.047 11.514-13.158.105-1.446 1.291-2.527 2.676-2.413 1.372.11 2.398 1.371 2.292 2.815-.923 12.601-14.309 17.516-14.878 17.72a2.389 2.389 0 0 1-.799.14z"/></g><g><path fill="#1d2a30" d="M273.995 87.64c0 4.868-3.27 8.812-7.307 8.812-4.037 0-7.31-3.944-7.31-8.811s3.273-8.811 7.31-8.811c4.036 0 7.307 3.944 7.307 8.81z"/></g><g><path fill="#525252" d="M266.688 96.452c-4.037 0-7.31-3.944-7.31-8.811s3.273-8.811 7.31-8.811c4.036 0 7.307 3.944 7.307 8.81 0 3.454-1.647 6.443-4.045 7.887a6.282 6.282 0 0 1-3.262.925"/></g><g><path fill="#fff" d="M243.19 179.4l-11.398 1.712 5.417 14.501s12.444-3.33 12.384-9.848l-2.682-4.54c-.786-1.33-2.246-2.046-3.72-1.826"/></g><g><path fill="#fff" d="M219.7 188.385l7.124 11.794 10.385-4.566-5.417-14.5-12.091 7.272"/></g><g><path fill="#4870c0" d="M110.279 192.025H253.25c1.803 0 3.279 1.553 3.279 3.45H107c0-1.897 1.475-3.45 3.279-3.45"/></g><g><path fill="#d1dbec" d="M256.53 195.475c0-1.897-1.476-3.45-3.279-3.45h-41.719c-1.804 0-3.28 1.553-3.28 3.45H106.998c0-1.897 1.476-3.45 3.28-3.45H253.25c1.803 0 3.279 1.553 3.279 3.45"/></g><g><path fill="#b1bdd1" d="M256.53 195.475h-48.279c0-1.897 1.476-3.45 3.281-3.45h41.719c1.803 0 3.279 1.553 3.279 3.45z"/></g><g><path fill="#4870c0" d="M93.04 115.122h100.08c3.197 0 6.407 2.753 7.131 6.118l13.918 64.667c.725 3.365-1.3 6.118-4.498 6.118h-100.08c-3.197 0-6.406-2.753-7.13-6.118L88.542 121.24c-.725-3.365 1.3-6.118 4.498-6.118z"/></g><g><path fill="#d1dbec" d="M109.592 192.025c-3.198 0-6.407-2.753-7.132-6.118L88.543 121.24a6.33 6.33 0 0 1-.147-1.34c-.003-2.726 1.884-4.778 4.645-4.778h100.08c2.577 0 5.161 1.79 6.446 4.245a8.153 8.153 0 0 0-.95-1.421c-.277-.332-.625-.476-.97-.476-.783 0-1.538.748-1.327 1.727l15.038 69.922c.154.71.743 1.101 1.328 1.101.458 0 .914-.24 1.155-.75l.089-.2c-.686 1.657-2.239 2.755-4.259 2.755zm104.723-4.881a6.293 6.293 0 0 0-.15-1.23l-6.742-31.351 6.746 31.344c.092.424.139.837.146 1.237zm-14.745-67.772z"/></g><g><path fill="#26489d" d="M214.293 187.781h-.001c.016-.174.024-.352.024-.534l-.001-.103c.005.217-.003.43-.022.637"/></g><g><path fill="#16191b" d="M213.93 189.269c.19-.458.312-.958.362-1.488h.001a5.045 5.045 0 0 1-.363 1.488"/></g><g><path fill="#969796" d="M205.326 144.82l-5.074-23.58a7.39 7.39 0 0 0-.682-1.868c.31.591.546 1.22.688 1.874l5.07 23.571-.002.003"/></g><g><path fill="#546ca1" d="M207.213 153.586l-1.887-8.766.002-.002 1.885 8.767v.001"/></g><g><path fill="#26489d" d="M207.423 154.562l-.21-.976v-.001z"/></g><g><path fill="#969796" d="M199.57 119.371l-.003-.004"/></g><g><path fill="#b1bdd1" d="M212.686 190.22a1.358 1.358 0 0 1-1.327-1.101l-15.039-69.922c-.211-.98.544-1.727 1.327-1.727.345 0 .693.144.97.476.364.439.685.915.95 1.42l.003.005v.001c.308.59.541 1.218.681 1.868l7.172 33.322 6.742 31.352c.093.42.142.832.15 1.23l.001.103a5.27 5.27 0 0 1-.475 2.223c-.241.51-.697.75-1.155.75"/></g><g><path fill="#4870c0" d="M350.825 310.935h-27.684l-25.153-83.284c-4.868-16.113-18.923-26.932-34.99-26.932h-19.45c-16.048 0-30.12 10.819-34.97 26.932l-25.17 83.284H155.74l25.635-84.873c5.516-18.3 21.481-30.587 39.724-30.587h64.35c18.243 0 34.208 12.287 39.741 30.587l25.635 84.873"/></g><g><path fill="#2e3849" d="M350.825 310.935h-27.684l-24.741-81.92-.412-1.364c-1.976-6.54-5.467-12.21-9.991-16.637-6.363-6.225-14.768-9.994-23.883-10.278-.37-.012-.742-.017-1.115-.017h-19.45c-16.05 0-30.12 10.819-34.972 26.932l-2.037 6.743-4.293 14.201-7.058 23.357-11.782 38.983H155.74l25.635-84.873c5.516-18.3 21.481-30.587 39.724-30.587h64.35c18.243 0 34.208 12.287 39.741 30.587l25.635 84.873"/></g><g><path fill="#141b26" d="M350.826 310.935h-5.234L320.44 227.65c-4.868-16.113-18.923-26.932-34.989-26.932h-41.902c-16.048 0-30.12 10.819-34.97 26.932l-25.17 83.284h-5.218l25.635-84.873c5.516-18.3 21.482-30.587 39.723-30.587h41.902c18.242 0 34.208 12.287 39.74 30.587l25.636 84.873"/></g></g></g></svg>