<svg xmlns="http://www.w3.org/2000/svg" width="36" height="40" viewBox="0 0 36 40"><g><g><path fill="#fff" d="M36 13.107c-1.008-.405-2.224-.607-3.647-.607h-.8l.208-1.29c.098-.46.069-.78-.09-.96-.157-.2-.473-.3-.946-.3H27.41c-.474 0-.819.1-1.036.3-.217.18-.365.5-.444.96l-.237 1.29h-.887c-2.763 0-4.982.65-6.66 1.95-1.657 1.28-2.703 3.18-3.137 5.7l-.266 1.59c-.434 2.58-.05 4.61 1.154 6.09 1.204 1.48 3.157 2.22 5.86 2.22h.888l-.237 1.29c-.079.48-.05.81.089.99.158.2.474.3.947.3h3.345c.473 0 .808-.1 1.006-.3.217-.18.375-.51.473-.99l.237-1.29h.888c2.37 0 4.335-.479 5.892-1.437C32.11 35.348 25.327 40 17.472 40 10.457 40 4.296 36.288.798 30.696l.88-5.086h3.61c2.368 0 4.322-.58 5.86-1.74 1.56-1.16 2.536-2.9 2.93-5.22.395-2.4.03-4.32-1.094-5.76-1.125-1.46-2.842-2.19-5.15-2.19H0C3.303 4.338 9.888 0 17.472 0 25.98 0 33.23 5.457 36 13.107zM20.958 20.24c.316-1.76 1.391-2.64 3.226-2.64h.621l-1.272 7.35h-.622c-1.835 0-2.604-.88-2.308-2.64zm10.3-2.64c1.854 0 2.624.88 2.308 2.64l-.355 2.07c-.296 1.76-1.371 2.64-3.226 2.64h-.622l1.273-7.35zM7.212 19.76c-.453.4-1.026.6-1.716.6h-2.9l.769-4.41h2.9c.69 0 1.194.2 1.51.6.335.4.444.94.325 1.62-.118.66-.414 1.19-.888 1.59z"/></g></g></svg>